<?xml version="1.0" standalone="no"?>
<!DOCTYPE svg PUBLIC "-//W3C//DTD SVG 20010904//EN"
 "http://www.w3.org/TR/2001/REC-SVG-20010904/DTD/svg10.dtd">
<svg version="1.0" xmlns="http://www.w3.org/2000/svg"
 width="2112.000000pt" height="2112.000000pt" viewBox="0 0 2112.000000 2112.000000"
 preserveAspectRatio="xMidYMid meet">
<metadata>
Created by potrace 1.14, written by Peter Selinger 2001-2017
</metadata>
<g transform="translate(0.000000,2112.000000) scale(0.100000,-0.100000)"
fill="#000000" stroke="none">
<path d="M3397 21114 c-1 -1 -51 -4 -112 -8 -60 -3 -119 -8 -130 -10 -11 -2
-46 -7 -79 -11 -32 -3 -68 -8 -80 -10 -11 -2 -39 -6 -61 -10 -32 -4 -156 -30
-245 -50 -112 -25 -393 -118 -530 -176 -105 -45 -395 -196 -480 -249 -241
-154 -437 -309 -626 -497 -199 -198 -311 -335 -462 -562 -117 -177 -108 -162
-199 -338 -160 -311 -300 -728 -338 -1008 -2 -16 -8 -61 -14 -100 -17 -119
-21 -156 -28 -270 -9 -146 -8 -14381 0 -14510 14 -201 22 -262 59 -454 112
-582 369 -1120 757 -1586 92 -111 327 -346 441 -441 260 -218 532 -385 884
-544 93 -41 378 -142 441 -154 11 -3 68 -16 126 -30 126 -30 310 -63 399 -72
36 -3 101 -9 145 -14 91 -8 14619 -7 14650 2 11 3 51 9 88 13 37 3 76 8 85 10
9 1 37 6 62 10 25 3 59 9 75 11 89 14 282 63 445 112 108 32 347 130 482 197
832 414 1470 1136 1773 2005 33 96 82 258 91 303 2 10 5 26 8 35 3 9 7 28 10
42 2 14 11 57 19 95 9 39 18 95 22 125 4 30 8 57 10 60 1 3 6 34 9 70 4 36 10
79 13 95 4 17 8 2475 10 5463 l3 5432 -1587 0 c-872 0 -1584 2 -1582 4 2 2 31
6 65 9 191 18 493 87 714 162 623 214 1154 583 1591 1105 332 397 610 965 715
1461 27 127 49 264 60 364 3 28 8 64 11 80 3 17 8 887 10 1935 l3 1905 -8665
0 c-4766 0 -8665 -3 -8665 -7 0 -5 -5 -8 -11 -8 -5 0 -7 5 -4 10 9 14 -8 12
-24 -2 -8 -7 -11 -8 -8 -3 3 7 -55 10 -170 10 -96 0 -175 -1 -176 -1z m13813
-7044 c0 -3 -17 -7 -37 -8 -21 -2 -45 -4 -53 -7 -8 -2 -37 -7 -65 -10 -27 -3
-102 -17 -165 -31 -63 -14 -122 -26 -130 -28 -104 -21 -364 -107 -520 -172
-88 -37 -317 -152 -395 -199 -44 -26 -89 -53 -100 -59 -11 -6 -56 -36 -100
-65 -491 -332 -901 -792 -1172 -1316 -37 -71 -68 -132 -69 -135 0 -3 -11 -27
-23 -55 -41 -90 -112 -278 -138 -365 -35 -120 -71 -251 -77 -280 -26 -133 -46
-248 -51 -287 -7 -66 -15 -122 -21 -163 -4 -19 -8 -891 -9 -1938 -2 -1047 -5
-1906 -8 -1908 -8 -8 -7018 -7 -7025 1 -4 4 -7 1587 -7 3519 l-1 3512 5083 0
c2796 0 5083 -3 5083 -6z m37 4 c-3 -3 -12 -4 -19 -1 -8 3 -5 6 6 6 11 1 17
-2 13 -5z"/>
</g>
</svg>
